# WaveFront *.obj file (generated by Autodesk ATF)

mtllib T2.mtl

g Solid1

v 0.000182 0.432858 0.428898
v 0.000182 0.432858 20.409617
v 0.000182 20.912728 0.428898
v 0.000182 20.912728 20.409617
v 0.429083 0.000264 0.428898
v 0.429083 0.000264 20.409617
v 0.429083 0.432858 0.000000
v 0.429083 0.432858 20.838516
v 0.429083 20.912728 0.000000
v 0.429083 20.912728 20.838516
v 0.429083 21.341627 0.428898
v 0.429083 21.341627 20.409617
v 7.596243 5.672793 0.000000
v 7.596243 5.672793 3.000000
v 7.596243 5.672793 17.838516
v 7.596243 5.672793 20.838516
v 7.596243 15.672792 0.000000
v 7.596243 15.672792 3.000000
v 7.596243 15.672792 17.838516
v 7.596243 15.672792 20.838516
v 17.596242 5.672793 17.838516
v 17.596242 5.672793 20.838516
v 17.596242 15.672792 17.838516
v 17.596242 15.672792 20.838516
v 27.596242 5.672793 0.000000
v 27.596242 5.672793 3.000000
v 27.596242 15.672792 0.000000
v 27.596242 15.672792 3.000000
v 42.679257 21.341627 0.428898
v 42.679257 21.341627 20.409617
v 42.679257 63.591762 0.428898
v 42.679257 63.591762 20.409617
v 43.104463 20.912728 0.000000
v 43.104463 20.912728 20.838516
v 43.104463 63.591762 0.000000
v 43.104463 63.591762 20.838516
v 43.104463 64.020672 0.428898
v 43.104463 64.020672 20.409617
v 48.346243 5.672793 17.838516
v 48.346243 5.672793 20.838516
v 48.346243 15.672792 17.838516
v 48.346243 15.672792 20.838516
v 48.346243 36.422791 0.000000
v 48.346243 36.422791 3.000000
v 48.346243 46.422791 17.838516
v 48.346243 46.422791 20.838516
v 48.346243 56.422791 0.000000
v 48.346243 56.422791 3.000000
v 48.346243 56.422791 17.838516
v 48.346243 56.422791 20.838516
v 58.346243 5.672793 17.838516
v 58.346243 5.672793 20.838516
v 58.346243 15.672792 17.838516
v 58.346243 15.672792 20.838516
v 58.346243 36.422791 0.000000
v 58.346243 36.422791 3.000000
v 58.346243 46.422791 17.838516
v 58.346243 46.422791 20.838516
v 58.346243 56.422791 0.000000
v 58.346243 56.422791 3.000000
v 58.346243 56.422791 17.838516
v 58.346243 56.422791 20.838516
v 63.588023 0.000264 0.428898
v 63.588023 0.000264 20.409617
v 63.588023 0.432858 0.000000
v 63.588023 0.432858 20.838516
v 63.588023 63.591762 0.000000
v 63.588023 63.591762 20.838516
v 63.588023 64.020672 0.428898
v 63.588023 64.020672 20.409617
v 64.016919 0.432858 0.428898
v 64.016919 0.432858 20.409617
v 64.016919 63.591762 0.428898
v 64.016919 63.591762 20.409617
vt 0.000000 0.000000 0.000000
vt 0.060656 0.000000 0.000000
vt 0.030328 0.052529 0.000000
vt 0.000000 0.000000 0.000000
vt 0.000000 2.047987 0.000000
vt -0.060656 2.047987 0.000000
vt -0.060656 0.000000 0.000000
vt -1.374166 1.523993 0.000000
vt -0.374166 1.523993 0.000000
vt -0.374166 0.523993 0.000000
vt -1.374166 0.523993 0.000000
vt 2.700834 1.523993 0.000000
vt 3.700834 1.523993 0.000000
vt 3.700834 0.523993 0.000000
vt 2.700834 0.523993 0.000000
vt 2.700834 5.598993 0.000000
vt 3.700834 5.598993 0.000000
vt 3.700834 4.598993 0.000000
vt 2.700834 4.598993 0.000000
vt -2.090882 2.047987 0.000000
vt -2.090882 0.000000 0.000000
vt 4.225012 0.000000 0.000000
vt 4.225012 6.315890 0.000000
vt 2.176656 6.315890 0.000000
vt 2.176656 2.047987 0.000000
vt -2.090882 0.000000 0.000000
vt 4.225012 0.000000 0.000000
vt 4.225012 0.060917 0.000000
vt -2.090882 0.060917 0.000000
vt -1.998072 6.315894 0.000000
vt -1.998072 0.000000 0.000000
vt 0.000000 0.000000 0.000000
vt 0.000000 6.315894 0.000000
vt 0.000000 0.000000 0.000000
vt 0.030328 -0.052831 0.000000
vt 0.060656 0.000000 0.000000
vt 0.000000 0.000000 0.000000
vt 0.000000 -0.060917 0.000000
vt 1.998072 -0.060917 0.000000
vt 1.998072 0.000000 0.000000
vt 0.000000 0.000000 0.000000
vt -0.060656 0.000000 0.000000
vt -0.030328 -0.052831 0.000000
vt 0.000000 0.000000 0.000000
vt 0.000000 -2.047987 0.000000
vt 1.998072 -2.047987 0.000000
vt 1.998072 0.000000 0.000000
vt 0.000000 0.000000 0.000000
vt 0.000000 2.047987 0.000000
vt -0.060656 2.047987 0.000000
vt -0.060656 0.000000 0.000000
vt 0.000000 0.000000 0.000000
vt 0.000000 -0.060656 0.000000
vt 1.998072 -0.060656 0.000000
vt 1.998072 0.000000 0.000000
vt 0.000000 0.000000 0.000000
vt -0.030328 0.052529 0.000000
vt -0.060656 0.000000 0.000000
vt 0.000000 0.000000 0.000000
vt 1.998072 0.000000 0.000000
vt 1.998072 4.225018 0.000000
vt 0.000000 4.225018 0.000000
vt 2.090882 0.000000 0.000000
vt -2.134135 0.000000 0.000000
vt -2.176656 -0.060655 0.000000
vt 2.090882 -0.060655 0.000000
vt 0.000000 -2.090877 0.000000
vt 0.000000 4.225014 0.000000
vt -0.060655 4.225014 0.000000
vt -0.060655 -2.090877 0.000000
vt 0.000000 0.000000 0.000000
vt 1.998072 0.000000 0.000000
vt 1.998072 6.315890 0.000000
vt 0.000000 6.315890 0.000000
vt -1.998072 -0.060917 0.000000
vt 0.000000 -0.060917 0.000000
vt 0.000000 0.000000 0.000000
vt -1.998072 0.000000 0.000000
vt 0.000000 0.000000 0.000000
vt 0.060655 0.000000 0.000000
vt 0.060655 6.315890 0.000000
vt 0.000000 6.315890 0.000000
vt 0.000000 0.000000 0.000000
vt 0.030328 0.052831 0.000000
vt -0.030327 0.052831 0.000000
vt 3.599178 0.523993 0.000000
vt 3.599178 1.523993 0.000000
vt 5.599178 1.523993 0.000000
vt 5.599178 0.523993 0.000000
vt 0.524178 5.598993 0.000000
vt 1.524178 5.598993 0.000000
vt 1.524178 3.598994 0.000000
vt 0.524178 3.598994 0.000000
vt 0.000000 0.000000 0.000000
vt 6.315894 0.000000 0.000000
vt 6.315894 2.047987 0.000000
vt 2.048356 2.047987 0.000000
vt 2.048356 6.315890 0.000000
vt 0.000000 6.315890 0.000000
vt -2.090877 0.000000 0.000000
vt 4.225018 0.000000 0.000000
vt 4.225018 0.060917 0.000000
vt -2.090877 0.060917 0.000000
vt 0.000000 0.000000 0.000000
vt 0.030327 0.052831 0.000000
vt -0.030328 0.052831 0.000000
vt 2.134135 0.000000 0.000000
vt -2.090882 0.000000 0.000000
vt -2.090882 -0.060655 0.000000
vt 2.176656 -0.060655 0.000000
vt 0.000000 2.091246 0.000000
vt 0.000000 -2.133768 0.000000
vt 0.060395 -2.176658 0.000000
vt 0.060395 2.091246 0.000000
vt 0.000000 -2.133768 0.000000
vt 0.000000 2.091246 0.000000
vt -1.998072 2.091246 0.000000
vt -1.998072 -2.133768 0.000000
vt 0.000000 0.000000 0.000000
vt -0.030459 -0.052454 0.000000
vt 0.029936 -0.052454 0.000000
vt 0.000000 0.000000 0.000000
vt 0.000000 -0.060396 0.000000
vt 1.998072 -0.060396 0.000000
vt 1.998072 0.000000 0.000000
vt 0.000000 0.000000 0.000000
vt -1.998072 0.000000 0.000000
vt -1.998072 -2.048356 0.000000
vt 0.000000 -2.048356 0.000000
vt 0.000000 0.000000 0.000000
vt -0.029936 -0.052454 0.000000
vt 0.030459 -0.052454 0.000000
vt 0.000000 0.000000 0.000000
vt 0.000000 0.060656 0.000000
vt -2.048356 0.060656 0.000000
vt -2.048356 0.000000 0.000000
vt 0.000000 0.000000 0.000000
vt -0.030327 0.052530 0.000000
vt -0.060655 0.000000 0.000000
vt -1.998072 -0.060656 0.000000
vt 0.000000 -0.060656 0.000000
vt 0.000000 0.000000 0.000000
vt -1.998072 0.000000 0.000000
vt 0.000000 0.000000 0.000000
vt 0.060655 0.000000 0.000000
vt 0.030327 0.052530 0.000000
vt 0.000000 0.000000 0.000000
vt 2.048356 0.000000 0.000000
vt 2.048356 0.060656 0.000000
vt 0.000000 0.060656 0.000000
vt 0.000000 0.000000 0.000000
vt 0.000000 -4.267903 0.000000
vt 0.060395 -4.225014 0.000000
vt 0.060395 0.000000 0.000000
vt 0.500000 -0.500000 0.000000
vt 0.500000 0.500000 0.000000
vt -0.500000 0.500000 0.000000
vt -0.500000 -0.500000 0.000000
vt -1.000000 0.000000 0.000000
vt -0.000000 0.000000 0.000000
vt -0.000000 0.300000 0.000000
vt -1.000000 0.300000 0.000000
vt -1.000000 0.000000 0.000000
vt -0.000000 0.000000 0.000000
vt -0.000000 0.300000 0.000000
vt -1.000000 0.300000 0.000000
vt -1.000000 0.000000 0.000000
vt -0.000000 0.000000 0.000000
vt -0.000000 0.300000 0.000000
vt -1.000000 0.300000 0.000000
vt -1.000000 0.000000 0.000000
vt -0.000000 0.000000 0.000000
vt -0.000000 0.300000 0.000000
vt -1.000000 0.300000 0.000000
vt 0.500000 -0.500000 0.000000
vt 0.500000 0.500000 0.000000
vt -0.500000 0.500000 0.000000
vt -0.500000 -0.500000 0.000000
vt -1.000000 0.000000 0.000000
vt -0.000000 0.000000 0.000000
vt -0.000000 0.300000 0.000000
vt -1.000000 0.300000 0.000000
vt -1.000000 0.000000 0.000000
vt -0.000000 0.000000 0.000000
vt -0.000000 0.300000 0.000000
vt -1.000000 0.300000 0.000000
vt -1.000000 0.000000 0.000000
vt -0.000000 0.000000 0.000000
vt -0.000000 0.300000 0.000000
vt -1.000000 0.300000 0.000000
vt -1.000000 0.000000 0.000000
vt -0.000000 0.000000 0.000000
vt -0.000000 0.300000 0.000000
vt -1.000000 0.300000 0.000000
vt 0.500000 -0.500000 0.000000
vt 0.500000 0.500000 0.000000
vt -0.500000 0.500000 0.000000
vt -0.500000 -0.500000 0.000000
vt -1.000000 0.000000 0.000000
vt -0.000000 0.000000 0.000000
vt -0.000000 0.300000 0.000000
vt -1.000000 0.300000 0.000000
vt -1.000000 0.000000 0.000000
vt -0.000000 0.000000 0.000000
vt -0.000000 0.300000 0.000000
vt -1.000000 0.300000 0.000000
vt -1.000000 0.000000 0.000000
vt -0.000000 0.000000 0.000000
vt -0.000000 0.300000 0.000000
vt -1.000000 0.300000 0.000000
vt -1.000000 0.000000 0.000000
vt -0.000000 0.000000 0.000000
vt -0.000000 0.300000 0.000000
vt -1.000000 0.300000 0.000000
vt 0.500000 -1.000000 0.000000
vt 0.500000 1.000000 0.000000
vt -0.500000 1.000000 0.000000
vt -0.500000 -1.000000 0.000000
vt -2.000000 0.000000 0.000000
vt -0.000000 0.000000 0.000000
vt -0.000000 0.300000 0.000000
vt -2.000000 0.300000 0.000000
vt -1.000000 0.000000 0.000000
vt -0.000000 0.000000 0.000000
vt -0.000000 0.300000 0.000000
vt -1.000000 0.300000 0.000000
vt -2.000000 0.000000 0.000000
vt -0.000000 0.000000 0.000000
vt -0.000000 0.300000 0.000000
vt -2.000000 0.300000 0.000000
vt -1.000000 0.000000 0.000000
vt -0.000000 0.000000 0.000000
vt -0.000000 0.300000 0.000000
vt -1.000000 0.300000 0.000000
vt 1.000000 0.500000 0.000000
vt -1.000000 0.500000 0.000000
vt -1.000000 -0.500000 0.000000
vt 1.000000 -0.500000 0.000000
vt -2.000000 0.000000 0.000000
vt -0.000000 0.000000 0.000000
vt -0.000000 0.300000 0.000000
vt -2.000000 0.300000 0.000000
vt -1.000000 0.000000 0.000000
vt -0.000000 0.000000 0.000000
vt -0.000000 0.300000 0.000000
vt -1.000000 0.300000 0.000000
vt -2.000000 0.000000 0.000000
vt -0.000000 0.000000 0.000000
vt -0.000000 0.300000 0.000000
vt -2.000000 0.300000 0.000000
vt -1.000000 0.000000 0.000000
vt -0.000000 0.000000 0.000000
vt -0.000000 0.300000 0.000000
vt -1.000000 0.300000 0.000000
vn -0.057735 0.057735 0.057735
vn -0.057735 0.057735 0.057735
vn -0.057735 0.057735 0.057735
vn -0.070710 0.000000 0.070711
vn -0.070710 0.000000 0.070711
vn -0.070710 0.000000 0.070711
vn -0.070710 0.000000 0.070711
vn 0.000000 0.000000 0.100000
vn 0.000000 0.000000 0.100000
vn 0.000000 0.000000 0.100000
vn 0.000000 0.000000 0.100000
vn 0.000000 0.000000 0.100000
vn 0.000000 0.000000 0.100000
vn 0.000000 0.000000 0.100000
vn 0.000000 0.000000 0.100000
vn 0.000000 0.000000 0.100000
vn 0.000000 0.000000 0.100000
vn 0.000000 0.000000 0.100000
vn 0.000000 0.000000 0.100000
vn 0.000000 0.000000 0.100000
vn 0.000000 0.000000 0.100000
vn 0.000000 0.000000 0.100000
vn 0.000000 0.000000 0.100000
vn 0.000000 0.000000 0.100000
vn 0.000000 0.000000 0.100000
vn 0.000000 -0.070407 0.071013
vn 0.000000 -0.070407 0.071013
vn 0.000000 -0.070407 0.071013
vn 0.000000 -0.070407 0.071013
vn 0.000000 -0.100000 0.000000
vn 0.000000 -0.100000 0.000000
vn 0.000000 -0.100000 0.000000
vn 0.000000 -0.100000 0.000000
vn -0.057899 -0.057405 0.057900
vn -0.057899 -0.057405 0.057900
vn -0.057899 -0.057405 0.057900
vn -0.071013 -0.070407 0.000000
vn -0.071013 -0.070407 0.000000
vn -0.071013 -0.070407 0.000000
vn -0.071013 -0.070407 0.000000
vn -0.057899 -0.057405 -0.057900
vn -0.057899 -0.057405 -0.057900
vn -0.057899 -0.057405 -0.057900
vn -0.100000 0.000000 0.000000
vn -0.100000 0.000000 0.000000
vn -0.100000 0.000000 0.000000
vn -0.100000 0.000000 0.000000
vn -0.070710 0.000000 -0.070711
vn -0.070710 0.000000 -0.070711
vn -0.070710 0.000000 -0.070711
vn -0.070710 0.000000 -0.070711
vn -0.070710 0.070711 0.000000
vn -0.070710 0.070711 0.000000
vn -0.070710 0.070711 0.000000
vn -0.070710 0.070711 0.000000
vn -0.057735 0.057735 -0.057735
vn -0.057735 0.057735 -0.057735
vn -0.057735 0.057735 -0.057735
vn 0.000000 0.100000 0.000000
vn 0.000000 0.100000 0.000000
vn 0.000000 0.100000 0.000000
vn 0.000000 0.100000 0.000000
vn 0.000000 0.070711 -0.070711
vn 0.000000 0.070711 -0.070711
vn 0.000000 0.070711 -0.070711
vn 0.000000 0.070711 -0.070711
vn 0.070711 0.000000 0.070710
vn 0.070711 0.000000 0.070710
vn 0.070711 0.000000 0.070710
vn 0.070711 0.000000 0.070710
vn 0.100000 0.000000 0.000000
vn 0.100000 0.000000 0.000000
vn 0.100000 0.000000 0.000000
vn 0.100000 0.000000 0.000000
vn 0.071014 -0.070407 0.000000
vn 0.071014 -0.070407 0.000000
vn 0.071014 -0.070407 0.000000
vn 0.071014 -0.070407 0.000000
vn 0.070711 0.000000 -0.070710
vn 0.070711 0.000000 -0.070710
vn 0.070711 0.000000 -0.070710
vn 0.070711 0.000000 -0.070710
vn 0.057900 -0.057405 -0.057899
vn 0.057900 -0.057405 -0.057899
vn 0.057900 -0.057405 -0.057899
vn 0.000000 0.000000 -0.100000
vn 0.000000 0.000000 -0.100000
vn 0.000000 0.000000 -0.100000
vn 0.000000 0.000000 -0.100000
vn 0.000000 0.000000 -0.100000
vn 0.000000 0.000000 -0.100000
vn 0.000000 0.000000 -0.100000
vn 0.000000 0.000000 -0.100000
vn 0.000000 0.000000 -0.100000
vn 0.000000 0.000000 -0.100000
vn 0.000000 0.000000 -0.100000
vn 0.000000 0.000000 -0.100000
vn 0.000000 0.000000 -0.100000
vn 0.000000 0.000000 -0.100000
vn 0.000000 -0.070407 -0.071013
vn 0.000000 -0.070407 -0.071013
vn 0.000000 -0.070407 -0.071013
vn 0.000000 -0.070407 -0.071013
vn 0.057900 -0.057405 0.057899
vn 0.057900 -0.057405 0.057899
vn 0.057900 -0.057405 0.057899
vn 0.000000 0.070711 0.070711
vn 0.000000 0.070711 0.070711
vn 0.000000 0.070711 0.070711
vn 0.000000 0.070711 0.070711
vn -0.071016 0.000000 0.070404
vn -0.071016 0.000000 0.070404
vn -0.071016 0.000000 0.070404
vn -0.071016 0.000000 0.070404
vn -0.100000 0.000000 0.000000
vn -0.100000 0.000000 0.000000
vn -0.100000 0.000000 0.000000
vn -0.100000 0.000000 0.000000
vn -0.058068 0.057567 -0.057568
vn -0.058068 0.057567 -0.057568
vn -0.058068 0.057567 -0.057568
vn -0.071017 0.070403 0.000000
vn -0.071017 0.070403 0.000000
vn -0.071017 0.070403 0.000000
vn -0.071017 0.070403 0.000000
vn 0.000000 0.100000 0.000000
vn 0.000000 0.100000 0.000000
vn 0.000000 0.100000 0.000000
vn 0.000000 0.100000 0.000000
vn -0.058068 0.057567 0.057568
vn -0.058068 0.057567 0.057568
vn -0.058068 0.057567 0.057568
vn 0.000000 0.070710 0.070712
vn 0.000000 0.070710 0.070712
vn 0.000000 0.070710 0.070712
vn 0.000000 0.070710 0.070712
vn 0.057736 0.057734 0.057735
vn 0.057736 0.057734 0.057735
vn 0.057736 0.057734 0.057735
vn 0.070712 0.070709 0.000000
vn 0.070712 0.070709 0.000000
vn 0.070712 0.070709 0.000000
vn 0.070712 0.070709 0.000000
vn 0.057736 0.057734 -0.057735
vn 0.057736 0.057734 -0.057735
vn 0.057736 0.057734 -0.057735
vn 0.000000 0.070710 -0.070712
vn 0.000000 0.070710 -0.070712
vn 0.000000 0.070710 -0.070712
vn 0.000000 0.070710 -0.070712
vn -0.071016 0.000000 -0.070404
vn -0.071016 0.000000 -0.070404
vn -0.071016 0.000000 -0.070404
vn -0.071016 0.000000 -0.070404
vn 0.000000 0.000000 0.100000
vn 0.000000 0.000000 0.100000
vn 0.000000 0.000000 0.100000
vn 0.000000 0.000000 0.100000
vn -0.100000 0.000000 0.000000
vn -0.100000 0.000000 0.000000
vn -0.100000 0.000000 0.000000
vn -0.100000 0.000000 0.000000
vn 0.000000 0.100000 0.000000
vn 0.000000 0.100000 0.000000
vn 0.000000 0.100000 0.000000
vn 0.000000 0.100000 0.000000
vn 0.100000 0.000000 0.000000
vn 0.100000 0.000000 0.000000
vn 0.100000 0.000000 0.000000
vn 0.100000 0.000000 0.000000
vn 0.000000 -0.100000 0.000000
vn 0.000000 -0.100000 0.000000
vn 0.000000 -0.100000 0.000000
vn 0.000000 -0.100000 0.000000
vn 0.000000 0.000000 0.100000
vn 0.000000 0.000000 0.100000
vn 0.000000 0.000000 0.100000
vn 0.000000 0.000000 0.100000
vn -0.100000 0.000000 0.000000
vn -0.100000 0.000000 0.000000
vn -0.100000 0.000000 0.000000
vn -0.100000 0.000000 0.000000
vn 0.000000 0.100000 0.000000
vn 0.000000 0.100000 0.000000
vn 0.000000 0.100000 0.000000
vn 0.000000 0.100000 0.000000
vn 0.100000 0.000000 0.000000
vn 0.100000 0.000000 0.000000
vn 0.100000 0.000000 0.000000
vn 0.100000 0.000000 0.000000
vn 0.000000 -0.100000 0.000000
vn 0.000000 -0.100000 0.000000
vn 0.000000 -0.100000 0.000000
vn 0.000000 -0.100000 0.000000
vn 0.000000 0.000000 0.100000
vn 0.000000 0.000000 0.100000
vn 0.000000 0.000000 0.100000
vn 0.000000 0.000000 0.100000
vn -0.100000 0.000000 0.000000
vn -0.100000 0.000000 0.000000
vn -0.100000 0.000000 0.000000
vn -0.100000 0.000000 0.000000
vn 0.000000 0.100000 0.000000
vn 0.000000 0.100000 0.000000
vn 0.000000 0.100000 0.000000
vn 0.000000 0.100000 0.000000
vn 0.100000 0.000000 0.000000
vn 0.100000 0.000000 0.000000
vn 0.100000 0.000000 0.000000
vn 0.100000 0.000000 0.000000
vn 0.000000 -0.100000 0.000000
vn 0.000000 -0.100000 0.000000
vn 0.000000 -0.100000 0.000000
vn 0.000000 -0.100000 0.000000
vn 0.000000 0.000000 -0.100000
vn 0.000000 0.000000 -0.100000
vn 0.000000 0.000000 -0.100000
vn 0.000000 0.000000 -0.100000
vn 0.100000 0.000000 0.000000
vn 0.100000 0.000000 0.000000
vn 0.100000 0.000000 0.000000
vn 0.100000 0.000000 0.000000
vn 0.000000 0.100000 0.000000
vn 0.000000 0.100000 0.000000
vn 0.000000 0.100000 0.000000
vn 0.000000 0.100000 0.000000
vn -0.100000 0.000000 0.000000
vn -0.100000 0.000000 0.000000
vn -0.100000 0.000000 0.000000
vn -0.100000 0.000000 0.000000
vn 0.000000 -0.100000 0.000000
vn 0.000000 -0.100000 0.000000
vn 0.000000 -0.100000 0.000000
vn 0.000000 -0.100000 0.000000
vn 0.000000 0.000000 -0.100000
vn 0.000000 0.000000 -0.100000
vn 0.000000 0.000000 -0.100000
vn 0.000000 0.000000 -0.100000
vn 0.000000 -0.100000 0.000000
vn 0.000000 -0.100000 0.000000
vn 0.000000 -0.100000 0.000000
vn 0.000000 -0.100000 0.000000
vn 0.100000 0.000000 0.000000
vn 0.100000 0.000000 0.000000
vn 0.100000 0.000000 0.000000
vn 0.100000 0.000000 0.000000
vn 0.000000 0.100000 0.000000
vn 0.000000 0.100000 0.000000
vn 0.000000 0.100000 0.000000
vn 0.000000 0.100000 0.000000
vn -0.100000 0.000000 0.000000
vn -0.100000 0.000000 0.000000
vn -0.100000 0.000000 0.000000
vn -0.100000 0.000000 0.000000
usemtl 0,193,19
f 4/1/1 10/2/2 12/3/3
f 10/5/5 4/6/6 8/4/4
f 8/4/4 4/6/6 2/7/7
f 24/9/9 10/20/20 20/8/8
f 20/8/8 10/20/20 8/21/21
f 20/8/8 8/21/21 16/11/11
f 16/11/11 8/21/21 22/10/10
f 22/10/10 8/21/21 66/22/22
f 22/10/10 66/22/22 40/15/15
f 40/15/15 66/22/22 52/14/14
f 52/14/14 66/22/22 54/13/13
f 54/13/13 66/22/22 58/18/18
f 54/13/13 58/18/18 34/25/25
f 34/25/25 58/18/18 46/19/19
f 34/25/25 46/19/19 36/24/24
f 36/24/24 46/19/19 50/16/16
f 36/24/24 50/16/16 62/17/17
f 10/20/20 24/9/9 34/25/25
f 34/25/25 24/9/9 22/10/10
f 34/25/25 22/10/10 40/15/15
f 40/15/15 42/12/12 34/25/25
f 34/25/25 42/12/12 54/13/13
f 36/24/24 62/17/17 68/23/23
f 68/23/23 62/17/17 58/18/18
f 68/23/23 58/18/18 66/22/22
f 6/26/26 64/27/27 8/29/29
f 8/29/29 64/27/27 66/28/28
f 6/31/31 5/32/32 64/30/30
f 64/30/30 5/32/32 63/33/33
f 2/34/34 6/35/35 8/36/36
f 5/38/38 6/39/39 1/37/37
f 1/37/37 6/39/39 2/40/40
f 1/41/41 7/42/42 5/43/43
f 1/45/45 2/46/46 3/44/44
f 3/44/44 2/46/46 4/47/47
f 3/49/49 9/50/50 1/48/48
f 1/48/48 9/50/50 7/51/51
f 3/53/53 4/54/54 11/52/52
f 11/52/52 4/54/54 12/55/55
f 3/56/56 11/57/57 9/58/58
f 11/59/59 12/60/60 29/62/62
f 29/62/62 12/60/60 30/61/61
f 11/63/63 29/64/64 9/66/66
f 9/66/66 29/64/64 33/65/65
f 74/68/68 68/69/69 72/67/67
f 72/67/67 68/69/69 66/70/70
f 72/71/71 71/72/72 74/74/74
f 74/74/74 71/72/72 73/73/73
f 64/75/75 63/76/76 72/78/78
f 72/78/78 63/76/76 71/77/77
f 71/79/79 65/80/80 73/82/82
f 73/82/82 65/80/80 67/81/81
f 63/83/83 65/84/84 71/85/85
f 27/87/87 33/97/97 25/86/86
f 25/86/86 33/97/97 65/94/94
f 25/86/86 65/94/94 7/95/95
f 33/97/97 27/87/87 9/96/96
f 9/96/96 27/87/87 17/88/88
f 9/96/96 17/88/88 7/95/95
f 7/95/95 17/88/88 13/89/89
f 7/95/95 13/89/89 25/86/86
f 55/93/93 59/90/90 67/99/99
f 67/99/99 59/90/90 47/91/91
f 67/99/99 47/91/91 35/98/98
f 35/98/98 47/91/91 43/92/92
f 35/98/98 43/92/92 33/97/97
f 33/97/97 43/92/92 55/93/93
f 33/97/97 55/93/93 65/94/94
f 65/94/94 55/93/93 67/99/99
f 63/100/100 5/101/101 65/103/103
f 65/103/103 5/101/101 7/102/102
f 64/104/104 72/105/105 66/106/106
f 12/108/108 10/109/109 30/107/107
f 30/107/107 10/109/109 34/110/110
f 32/111/111 30/112/112 36/114/114
f 36/114/114 30/112/112 34/113/113
f 32/116/116 31/117/117 30/115/115
f 30/115/115 31/117/117 29/118/118
f 37/119/119 35/120/120 31/121/121
f 31/123/123 32/124/124 37/122/122
f 37/122/122 32/124/124 38/125/125
f 70/126/126 69/127/127 38/129/129
f 38/129/129 69/127/127 37/128/128
f 38/130/130 32/131/131 36/132/132
f 70/134/134 38/135/135 68/133/133
f 68/133/133 38/135/135 36/136/136
f 74/137/137 70/138/138 68/139/139
f 74/140/140 73/141/141 70/143/143
f 70/143/143 73/141/141 69/142/142
f 73/144/144 67/145/145 69/146/146
f 67/147/147 35/148/148 69/150/150
f 69/150/150 35/148/148 37/149/149
f 33/152/152 29/153/153 35/151/151
f 35/151/151 29/153/153 31/154/154
usemtl 107,107,107
f 61/156/156 49/157/157 57/155/155
f 57/155/155 49/157/157 45/158/158
f 58/159/159 62/160/160 57/162/162
f 57/162/162 62/160/160 61/161/161
f 46/163/163 58/164/164 45/166/166
f 45/166/166 58/164/164 57/165/165
f 50/167/167 46/168/168 49/170/170
f 49/170/170 46/168/168 45/169/169
f 62/171/171 50/172/172 61/174/174
f 61/174/174 50/172/172 49/173/173
f 53/176/176 41/177/177 51/175/175
f 51/175/175 41/177/177 39/178/178
f 52/179/179 54/180/180 51/182/182
f 51/182/182 54/180/180 53/181/181
f 40/183/183 52/184/184 39/186/186
f 39/186/186 52/184/184 51/185/185
f 42/187/187 40/188/188 41/190/190
f 41/190/190 40/188/188 39/189/189
f 54/191/191 42/192/192 53/194/194
f 53/194/194 42/192/192 41/193/193
f 23/196/196 19/197/197 21/195/195
f 21/195/195 19/197/197 15/198/198
f 22/199/199 24/200/200 21/202/202
f 21/202/202 24/200/200 23/201/201
f 16/203/203 22/204/204 15/206/206
f 15/206/206 22/204/204 21/205/205
f 20/207/207 16/208/208 19/210/210
f 19/210/210 16/208/208 15/209/209
f 24/211/211 20/212/212 23/214/214
f 23/214/214 20/212/212 19/213/213
f 48/216/216 60/217/217 44/215/215
f 44/215/215 60/217/217 56/218/218
f 43/219/219 47/220/220 44/222/222
f 44/222/222 47/220/220 48/221/221
f 55/223/223 43/224/224 56/226/226
f 56/226/226 43/224/224 44/225/225
f 59/227/227 55/228/228 60/230/230
f 60/230/230 55/228/228 56/229/229
f 47/231/231 59/232/232 48/234/234
f 48/234/234 59/232/232 60/233/233
f 18/235/235 28/236/236 14/238/238
f 14/238/238 28/236/236 26/237/237
f 17/239/239 27/240/240 18/242/242
f 18/242/242 27/240/240 28/241/241
f 13/243/243 17/244/244 14/246/246
f 14/246/246 17/244/244 18/245/245
f 25/247/247 13/248/248 26/250/250
f 26/250/250 13/248/248 14/249/249
f 27/251/251 25/252/252 28/254/254
f 28/254/254 25/252/252 26/253/253
# 74 vertices
# 254 texture params
# 254 normals
# 144 facets

# 1 groups
