# WaveFront *.obj file (generated by Autodesk ATF)

mtllib T4.mtl

g Solid1

v 0.000000 0.428887 0.428898
v 0.000000 0.428887 20.409617
v 0.000000 85.095530 0.428898
v 0.000000 85.095530 20.409617
v 0.432599 0.000000 0.428898
v 0.432599 0.000000 20.409617
v 0.432599 0.428887 0.000000
v 0.432599 0.428887 20.838516
v 0.432599 85.095530 0.000000
v 0.432599 85.095530 20.838516
v 0.432599 85.520735 0.428898
v 0.432599 85.520735 20.409617
v 5.413734 12.604265 0.000000
v 5.413734 12.604265 3.000000
v 5.413734 15.368710 17.838516
v 5.413734 15.368710 20.838516
v 5.413734 22.604265 0.000000
v 5.413734 22.604265 3.000000
v 5.413734 64.016690 17.838516
v 5.413734 64.016690 20.838516
v 5.672557 41.068277 0.000000
v 5.672557 41.068277 3.000000
v 5.672557 51.068277 0.000000
v 5.672557 51.068277 3.000000
v 5.672557 69.237838 0.000000
v 5.672557 69.237838 3.000000
v 5.672557 79.237838 0.000000
v 5.672557 79.237838 3.000000
v 15.413734 15.368710 17.838516
v 15.413734 15.368710 20.838516
v 15.413734 64.016690 17.838516
v 15.413734 64.016690 20.838516
v 15.672557 41.068277 0.000000
v 15.672557 41.068277 3.000000
v 15.672557 51.068277 0.000000
v 15.672557 51.068277 3.000000
v 15.672557 69.237838 0.000000
v 15.672557 69.237838 3.000000
v 15.672557 79.237838 0.000000
v 15.672557 79.237838 3.000000
v 15.931381 12.604265 0.000000
v 15.931381 12.604265 3.000000
v 15.931381 22.604265 0.000000
v 15.931381 22.604265 3.000000
v 20.912516 0.000000 0.428898
v 20.912516 0.000000 20.409617
v 20.912516 0.428887 0.000000
v 20.912516 0.428887 20.838516
v 20.912516 64.445581 0.000000
v 20.912516 64.445581 20.838516
v 21.341414 0.428887 0.428898
v 21.341414 0.428887 20.409617
v 21.341414 64.016690 0.428898
v 21.341414 64.016690 20.409617
v 42.250185 64.016690 0.428898
v 42.250185 64.016690 20.409617
v 42.250185 64.445581 0.000000
v 42.250185 64.445581 20.838516
v 42.250185 85.095530 0.000000
v 42.250185 85.095530 20.838516
v 42.250185 85.520735 0.428898
v 42.250185 85.520735 20.409617
v 42.682776 64.445581 0.428898
v 42.682776 64.445581 20.409617
v 42.682776 85.095530 0.428898
v 42.682776 85.095530 20.409617
vt -1.000000 0.000000 0.000000
vt -0.000000 0.000000 0.000000
vt -0.000000 0.300000 0.000000
vt -1.000000 0.300000 0.000000
vt -1.000000 0.000000 0.000000
vt -0.000000 0.000000 0.000000
vt -0.000000 0.300000 0.000000
vt -1.000000 0.300000 0.000000
vt -1.000000 0.000000 0.000000
vt -0.000000 0.000000 0.000000
vt -0.000000 0.300000 0.000000
vt -1.000000 0.300000 0.000000
vt -1.000000 0.000000 0.000000
vt -0.000000 0.000000 0.000000
vt -0.000000 0.300000 0.000000
vt -1.000000 0.300000 0.000000
vt 0.500000 0.500000 0.000000
vt -0.500000 0.500000 0.000000
vt -0.500000 -0.500000 0.000000
vt 0.500000 -0.500000 0.000000
vt -1.000000 0.000000 0.000000
vt -0.000000 0.000000 0.000000
vt -0.000000 0.300000 0.000000
vt -1.000000 0.300000 0.000000
vt -1.000000 0.000000 0.000000
vt -0.000000 0.000000 0.000000
vt -0.000000 0.300000 0.000000
vt -1.000000 0.300000 0.000000
vt -1.000000 0.000000 0.000000
vt -0.000000 0.000000 0.000000
vt -0.000000 0.300000 0.000000
vt -1.000000 0.300000 0.000000
vt -1.000000 0.000000 0.000000
vt -0.000000 0.000000 0.000000
vt -0.000000 0.300000 0.000000
vt -1.000000 0.300000 0.000000
vt 0.500000 -0.500000 0.000000
vt 0.500000 0.500000 0.000000
vt -0.500000 0.500000 0.000000
vt -0.500000 -0.500000 0.000000
vt -1.051765 0.000000 0.000000
vt -0.000000 0.000000 0.000000
vt -0.000000 0.300000 0.000000
vt -1.051765 0.300000 0.000000
vt -1.000000 0.000000 0.000000
vt -0.000000 0.000000 0.000000
vt -0.000000 0.300000 0.000000
vt -1.000000 0.300000 0.000000
vt -1.051765 0.000000 0.000000
vt -0.000000 0.000000 0.000000
vt -0.000000 0.300000 0.000000
vt -1.051765 0.300000 0.000000
vt -1.000000 0.000000 0.000000
vt -0.000000 0.000000 0.000000
vt -0.000000 0.300000 0.000000
vt -1.000000 0.300000 0.000000
vt 0.525882 -0.500000 0.000000
vt 0.525882 0.500000 0.000000
vt -0.525882 0.500000 0.000000
vt -0.525882 -0.500000 0.000000
vt -1.000000 0.000000 0.000000
vt -0.000000 0.000000 0.000000
vt -0.000000 0.300000 0.000000
vt -1.000000 0.300000 0.000000
vt -4.864798 0.000000 0.000000
vt -0.000000 0.000000 0.000000
vt -0.000000 0.300000 0.000000
vt -4.864798 0.300000 0.000000
vt -1.000000 0.000000 0.000000
vt -0.000000 0.000000 0.000000
vt -0.000000 0.300000 0.000000
vt -1.000000 0.300000 0.000000
vt -4.864798 0.000000 0.000000
vt -0.000000 0.000000 0.000000
vt -0.000000 0.300000 0.000000
vt -4.864798 0.300000 0.000000
vt 0.500000 -2.432399 0.000000
vt 0.500000 2.432399 0.000000
vt -0.500000 2.432399 0.000000
vt -0.500000 -2.432399 0.000000
vt 0.000000 0.000000 0.000000
vt -1.998072 0.000000 0.000000
vt -1.998072 -0.060655 0.000000
vt 0.000000 -0.060655 0.000000
vt 0.000000 0.000000 0.000000
vt 0.030328 0.052528 0.000000
vt -0.030328 0.052528 0.000000
vt 0.000000 0.000000 0.000000
vt 2.047992 0.000000 0.000000
vt 2.047992 0.060655 0.000000
vt 0.000000 0.060655 0.000000
vt 0.000000 0.000000 0.000000
vt 0.000000 2.047992 0.000000
vt -1.998072 2.047992 0.000000
vt -1.998072 0.000000 0.000000
vt 0.000000 0.000000 0.000000
vt 0.030720 0.052603 0.000000
vt -0.030197 0.052603 0.000000
vt 0.000000 0.000000 0.000000
vt 0.000000 -0.060917 0.000000
vt 1.998072 -0.060917 0.000000
vt 1.998072 0.000000 0.000000
vt 0.000000 0.000000 0.000000
vt 0.000000 8.466664 0.000000
vt -0.060918 8.466664 0.000000
vt -0.060918 0.000000 0.000000
vt 0.000000 0.000000 0.000000
vt 0.000000 -8.466664 0.000000
vt 1.998072 -8.466664 0.000000
vt 1.998072 0.000000 0.000000
vt 0.000000 0.000000 0.000000
vt -0.030197 -0.052304 0.000000
vt 0.030720 -0.052304 0.000000
vt 0.000000 0.000000 0.000000
vt 1.998072 0.000000 0.000000
vt 1.998072 0.060658 0.000000
vt 0.000000 0.060658 0.000000
vt 0.000000 0.000000 0.000000
vt -0.030720 -0.052304 0.000000
vt 0.030197 -0.052304 0.000000
vt 0.000000 0.000000 0.000000
vt 0.000000 -0.060395 0.000000
vt 4.181758 -0.060395 0.000000
vt 4.181758 0.000000 0.000000
vt 0.000000 0.000000 0.000000
vt -0.030197 -0.052303 0.000000
vt 0.030720 -0.052303 0.000000
vt 1.998072 -2.090882 0.000000
vt 1.998072 2.090877 0.000000
vt 0.000000 2.090877 0.000000
vt 0.000000 -2.090882 0.000000
vt 0.000000 0.000000 0.000000
vt -1.998072 0.000000 0.000000
vt -1.998072 -0.060658 0.000000
vt 0.000000 -0.060658 0.000000
vt 2.090882 0.060395 0.000000
vt -2.090877 0.060395 0.000000
vt -2.090877 0.000000 0.000000
vt 2.090882 0.000000 0.000000
vt 0.000000 0.000000 0.000000
vt -0.030720 -0.052303 0.000000
vt 0.030197 -0.052303 0.000000
vt 0.566886 -1.585769 0.000000
vt 0.566886 -0.585769 0.000000
vt 1.566886 -0.585769 0.000000
vt 1.566886 -1.585769 0.000000
vt 0.566886 -3.402725 0.000000
vt 1.566886 -3.402725 0.000000
vt 1.566886 -4.402725 0.000000
vt 0.566886 -4.402725 0.000000
vt 0.541003 -6.249126 0.000000
vt 1.592768 -6.249126 0.000000
vt 1.592768 -7.249126 0.000000
vt 0.541003 -7.249126 0.000000
vt 2.090882 0.000000 0.000000
vt -2.090877 0.000000 0.000000
vt -2.090877 -2.064995 0.000000
vt 0.042890 -2.064995 0.000000
vt 0.042890 -8.466664 0.000000
vt 2.090882 -8.466664 0.000000
vt -0.060917 -2.064995 0.000000
vt 0.000000 -2.064995 0.000000
vt 0.000000 0.000000 0.000000
vt -0.060917 0.000000 0.000000
vt 0.000000 0.000000 0.000000
vt -2.133767 0.000000 0.000000
vt -2.133767 -0.060655 0.000000
vt -0.042890 -0.060655 0.000000
vt 0.060655 2.176655 0.000000
vt 0.000000 2.133766 0.000000
vt 0.000000 -4.225014 0.000000
vt 0.060655 -4.225014 0.000000
vt 0.000000 -6.358780 0.000000
vt 0.000000 0.000000 0.000000
vt -1.998072 0.000000 0.000000
vt -1.998072 -6.358780 0.000000
vt 2.047992 -0.060655 0.000000
vt 2.047992 0.000000 0.000000
vt 0.000000 0.000000 0.000000
vt 0.000000 -0.060655 0.000000
vt 0.000000 0.000000 0.000000
vt 0.030328 0.052528 0.000000
vt -0.030328 0.052528 0.000000
vt 0.000000 0.000000 0.000000
vt 0.030197 0.052603 0.000000
vt -0.030720 0.052603 0.000000
vt 0.000000 0.000000 0.000000
vt 0.000000 8.466664 0.000000
vt -0.060918 8.466664 0.000000
vt -0.060918 0.000000 0.000000
vt 0.498114 2.133766 0.000000
vt 1.498114 2.133766 0.000000
vt 1.498114 -2.731032 0.000000
vt 0.498114 -2.731032 0.000000
vt 0.000000 4.241650 0.000000
vt 0.000000 -4.225014 0.000000
vt 2.047992 -4.225014 0.000000
vt 2.047992 2.176655 0.000000
vt 4.181758 2.176655 0.000000
vt 4.181758 4.241650 0.000000
vt 0.060655 2.133766 0.000000
vt 0.000000 2.176655 0.000000
vt 0.000000 -4.225014 0.000000
vt 0.060655 -4.225014 0.000000
vt -2.133767 0.060655 0.000000
vt -2.090877 0.000000 0.000000
vt 0.000000 0.000000 0.000000
vt 0.000000 0.060655 0.000000
vt 0.000000 0.000000 0.000000
vt 0.000000 -2.090877 0.000000
vt 1.998072 -2.090877 0.000000
vt 1.998072 0.000000 0.000000
vt -1.998072 0.060917 0.000000
vt -1.998072 0.000000 0.000000
vt 0.000000 0.000000 0.000000
vt 0.000000 0.060917 0.000000
vt 0.000000 0.000000 0.000000
vt 0.030720 0.052604 0.000000
vt -0.030197 0.052604 0.000000
vt -0.060917 -2.064995 0.000000
vt 0.000000 -2.064995 0.000000
vt 0.000000 0.000000 0.000000
vt -0.060917 0.000000 0.000000
vt 1.998072 2.064995 0.000000
vt 0.000000 2.064995 0.000000
vt 0.000000 0.000000 0.000000
vt 1.998072 0.000000 0.000000
vt 0.000000 0.000000 0.000000
vt 0.030197 0.052604 0.000000
vt -0.030720 0.052604 0.000000
vn -0.100000 0.000000 0.000000
vn -0.100000 0.000000 0.000000
vn -0.100000 0.000000 0.000000
vn -0.100000 0.000000 0.000000
vn 0.000000 0.100000 0.000000
vn 0.000000 0.100000 0.000000
vn 0.000000 0.100000 0.000000
vn 0.000000 0.100000 0.000000
vn 0.100000 0.000000 0.000000
vn 0.100000 0.000000 0.000000
vn 0.100000 0.000000 0.000000
vn 0.100000 0.000000 0.000000
vn 0.000000 -0.100000 0.000000
vn 0.000000 -0.100000 0.000000
vn 0.000000 -0.100000 0.000000
vn 0.000000 -0.100000 0.000000
vn 0.000000 0.000000 -0.100000
vn 0.000000 0.000000 -0.100000
vn 0.000000 0.000000 -0.100000
vn 0.000000 0.000000 -0.100000
vn 0.000000 -0.100000 0.000000
vn 0.000000 -0.100000 0.000000
vn 0.000000 -0.100000 0.000000
vn 0.000000 -0.100000 0.000000
vn -0.100000 0.000000 0.000000
vn -0.100000 0.000000 0.000000
vn -0.100000 0.000000 0.000000
vn -0.100000 0.000000 0.000000
vn 0.000000 0.100000 0.000000
vn 0.000000 0.100000 0.000000
vn 0.000000 0.100000 0.000000
vn 0.000000 0.100000 0.000000
vn 0.100000 0.000000 0.000000
vn 0.100000 0.000000 0.000000
vn 0.100000 0.000000 0.000000
vn 0.100000 0.000000 0.000000
vn 0.000000 0.000000 -0.100000
vn 0.000000 0.000000 -0.100000
vn 0.000000 0.000000 -0.100000
vn 0.000000 0.000000 -0.100000
vn 0.000000 -0.100000 0.000000
vn 0.000000 -0.100000 0.000000
vn 0.000000 -0.100000 0.000000
vn 0.000000 -0.100000 0.000000
vn -0.100000 0.000000 0.000000
vn -0.100000 0.000000 0.000000
vn -0.100000 0.000000 0.000000
vn -0.100000 0.000000 0.000000
vn 0.000000 0.100000 0.000000
vn 0.000000 0.100000 0.000000
vn 0.000000 0.100000 0.000000
vn 0.000000 0.100000 0.000000
vn 0.100000 0.000000 0.000000
vn 0.100000 0.000000 0.000000
vn 0.100000 0.000000 0.000000
vn 0.100000 0.000000 0.000000
vn 0.000000 0.000000 -0.100000
vn 0.000000 0.000000 -0.100000
vn 0.000000 0.000000 -0.100000
vn 0.000000 0.000000 -0.100000
vn 0.000000 -0.100000 0.000000
vn 0.000000 -0.100000 0.000000
vn 0.000000 -0.100000 0.000000
vn 0.000000 -0.100000 0.000000
vn 0.100000 0.000000 0.000000
vn 0.100000 0.000000 0.000000
vn 0.100000 0.000000 0.000000
vn 0.100000 0.000000 0.000000
vn 0.000000 0.100000 0.000000
vn 0.000000 0.100000 0.000000
vn 0.000000 0.100000 0.000000
vn 0.000000 0.100000 0.000000
vn -0.100000 0.000000 0.000000
vn -0.100000 0.000000 0.000000
vn -0.100000 0.000000 0.000000
vn -0.100000 0.000000 0.000000
vn 0.000000 0.000000 0.100000
vn 0.000000 0.000000 0.100000
vn 0.000000 0.000000 0.100000
vn 0.000000 0.000000 0.100000
vn 0.070710 -0.070712 0.000000
vn 0.070710 -0.070712 0.000000
vn 0.070710 -0.070712 0.000000
vn 0.070710 -0.070712 0.000000
vn 0.057735 -0.057736 -0.057735
vn 0.057735 -0.057736 -0.057735
vn 0.057735 -0.057736 -0.057735
vn 0.000000 -0.070712 -0.070710
vn 0.000000 -0.070712 -0.070710
vn 0.000000 -0.070712 -0.070710
vn 0.000000 -0.070712 -0.070710
vn 0.000000 -0.100000 0.000000
vn 0.000000 -0.100000 0.000000
vn 0.000000 -0.100000 0.000000
vn 0.000000 -0.100000 0.000000
vn -0.057404 -0.057901 -0.057899
vn -0.057404 -0.057901 -0.057899
vn -0.057404 -0.057901 -0.057899
vn -0.070405 -0.071015 0.000000
vn -0.070405 -0.071015 0.000000
vn -0.070405 -0.071015 0.000000
vn -0.070405 -0.071015 0.000000
vn -0.070406 0.000000 -0.071014
vn -0.070406 0.000000 -0.071014
vn -0.070406 0.000000 -0.071014
vn -0.070406 0.000000 -0.071014
vn -0.100000 0.000000 0.000000
vn -0.100000 0.000000 0.000000
vn -0.100000 0.000000 0.000000
vn -0.100000 0.000000 0.000000
vn -0.057237 0.058232 -0.057731
vn -0.057237 0.058232 -0.057731
vn -0.057237 0.058232 -0.057731
vn -0.070099 0.071317 0.000000
vn -0.070099 0.071317 0.000000
vn -0.070099 0.071317 0.000000
vn -0.070099 0.071317 0.000000
vn -0.057237 0.058232 0.057731
vn -0.057237 0.058232 0.057731
vn -0.057237 0.058232 0.057731
vn 0.000000 0.071016 0.070404
vn 0.000000 0.071016 0.070404
vn 0.000000 0.071016 0.070404
vn 0.000000 0.071016 0.070404
vn 0.057238 0.058232 0.057731
vn 0.057238 0.058232 0.057731
vn 0.057238 0.058232 0.057731
vn 0.000000 0.100000 0.000000
vn 0.000000 0.100000 0.000000
vn 0.000000 0.100000 0.000000
vn 0.000000 0.100000 0.000000
vn 0.070099 0.071317 0.000000
vn 0.070099 0.071317 0.000000
vn 0.070099 0.071317 0.000000
vn 0.070099 0.071317 0.000000
vn 0.000000 0.071016 -0.070404
vn 0.000000 0.071016 -0.070404
vn 0.000000 0.071016 -0.070404
vn 0.000000 0.071016 -0.070404
vn 0.057238 0.058232 -0.057731
vn 0.057238 0.058232 -0.057731
vn 0.057238 0.058232 -0.057731
vn 0.000000 0.000000 -0.100000
vn 0.000000 0.000000 -0.100000
vn 0.000000 0.000000 -0.100000
vn 0.000000 0.000000 -0.100000
vn 0.000000 0.000000 -0.100000
vn 0.000000 0.000000 -0.100000
vn 0.000000 0.000000 -0.100000
vn 0.000000 0.000000 -0.100000
vn 0.000000 0.000000 -0.100000
vn 0.000000 0.000000 -0.100000
vn 0.000000 0.000000 -0.100000
vn 0.000000 0.000000 -0.100000
vn 0.000000 0.000000 -0.100000
vn 0.000000 0.000000 -0.100000
vn 0.000000 0.000000 -0.100000
vn 0.000000 0.000000 -0.100000
vn 0.000000 0.000000 -0.100000
vn 0.000000 0.000000 -0.100000
vn 0.070407 0.000000 -0.071013
vn 0.070407 0.000000 -0.071013
vn 0.070407 0.000000 -0.071013
vn 0.070407 0.000000 -0.071013
vn 0.000000 -0.070711 -0.070710
vn 0.000000 -0.070711 -0.070710
vn 0.000000 -0.070711 -0.070710
vn 0.000000 -0.070711 -0.070710
vn 0.070711 0.000000 -0.070711
vn 0.070711 0.000000 -0.070711
vn 0.070711 0.000000 -0.070711
vn 0.070711 0.000000 -0.070711
vn 0.100000 0.000000 0.000000
vn 0.100000 0.000000 0.000000
vn 0.100000 0.000000 0.000000
vn 0.100000 0.000000 0.000000
vn 0.000000 -0.070712 0.070710
vn 0.000000 -0.070712 0.070710
vn 0.000000 -0.070712 0.070710
vn 0.000000 -0.070712 0.070710
vn 0.057735 -0.057736 0.057735
vn 0.057735 -0.057736 0.057735
vn 0.057735 -0.057736 0.057735
vn -0.057404 -0.057901 0.057899
vn -0.057404 -0.057901 0.057899
vn -0.057404 -0.057901 0.057899
vn -0.070406 0.000000 0.071014
vn -0.070406 0.000000 0.071014
vn -0.070406 0.000000 0.071014
vn -0.070406 0.000000 0.071014
vn 0.000000 0.000000 0.100000
vn 0.000000 0.000000 0.100000
vn 0.000000 0.000000 0.100000
vn 0.000000 0.000000 0.100000
vn 0.000000 0.000000 0.100000
vn 0.000000 0.000000 0.100000
vn 0.000000 0.000000 0.100000
vn 0.000000 0.000000 0.100000
vn 0.000000 0.000000 0.100000
vn 0.000000 0.000000 0.100000
vn 0.070711 0.000000 0.070711
vn 0.070711 0.000000 0.070711
vn 0.070711 0.000000 0.070711
vn 0.070711 0.000000 0.070711
vn 0.000000 -0.070711 0.070710
vn 0.000000 -0.070711 0.070710
vn 0.000000 -0.070711 0.070710
vn 0.000000 -0.070711 0.070710
vn 0.000000 -0.100000 0.000000
vn 0.000000 -0.100000 0.000000
vn 0.000000 -0.100000 0.000000
vn 0.000000 -0.100000 0.000000
vn 0.070406 -0.071014 0.000000
vn 0.070406 -0.071014 0.000000
vn 0.070406 -0.071014 0.000000
vn 0.070406 -0.071014 0.000000
vn 0.057405 -0.057900 0.057899
vn 0.057405 -0.057900 0.057899
vn 0.057405 -0.057900 0.057899
vn 0.070407 0.000000 0.071013
vn 0.070407 0.000000 0.071013
vn 0.070407 0.000000 0.071013
vn 0.070407 0.000000 0.071013
vn 0.100000 0.000000 0.000000
vn 0.100000 0.000000 0.000000
vn 0.100000 0.000000 0.000000
vn 0.100000 0.000000 0.000000
vn 0.057405 -0.057900 -0.057899
vn 0.057405 -0.057900 -0.057899
vn 0.057405 -0.057900 -0.057899
usemtl 0,0,0
f 39/1/1 37/2/2 40/4/4
f 40/4/4 37/2/2 38/3/3
f 37/5/5 25/6/6 38/8/8
f 38/8/8 25/6/6 26/7/7
f 25/9/9 27/10/10 26/12/12
f 26/12/12 27/10/10 28/11/11
f 27/13/13 39/14/14 28/16/16
f 28/16/16 39/14/14 40/15/15
f 28/17/17 40/18/18 26/20/20
f 26/20/20 40/18/18 38/19/19
f 23/21/21 35/22/22 24/24/24
f 24/24/24 35/22/22 36/23/23
f 35/25/25 33/26/26 36/28/28
f 36/28/28 33/26/26 34/27/27
f 33/29/29 21/30/30 34/32/32
f 34/32/32 21/30/30 22/31/31
f 21/33/33 23/34/34 22/36/36
f 22/36/36 23/34/34 24/35/35
f 24/38/38 36/39/39 22/37/37
f 22/37/37 36/39/39 34/40/40
f 17/41/41 43/42/42 18/44/44
f 18/44/44 43/42/42 44/43/43
f 43/45/45 41/46/46 44/48/48
f 44/48/48 41/46/46 42/47/47
f 41/49/49 13/50/50 42/52/52
f 42/52/52 13/50/50 14/51/51
f 13/53/53 17/54/54 14/56/56
f 14/56/56 17/54/54 18/55/55
f 18/58/58 44/59/59 14/57/57
f 14/57/57 44/59/59 42/60/60
f 32/61/61 20/62/62 31/64/64
f 31/64/64 20/62/62 19/63/63
f 20/65/65 16/66/66 19/68/68
f 19/68/68 16/66/66 15/67/67
f 16/69/69 30/70/70 15/72/72
f 15/72/72 30/70/70 29/71/71
f 30/73/73 32/74/74 29/76/76
f 29/76/76 32/74/74 31/75/75
f 31/78/78 19/79/79 29/77/77
f 29/77/77 19/79/79 15/80/80
usemtl 255,0,0
f 51/81/81 52/82/82 45/84/84
f 45/84/84 52/82/82 46/83/83
f 45/85/85 47/86/86 51/87/87
f 45/88/88 5/89/89 47/91/91
f 47/91/91 5/89/89 7/90/90
f 45/93/93 46/94/94 5/92/92
f 5/92/92 46/94/94 6/95/95
f 5/96/96 1/97/97 7/98/98
f 5/100/100 6/101/101 1/99/99
f 1/99/99 6/101/101 2/102/102
f 3/104/104 9/105/105 1/103/103
f 1/103/103 9/105/105 7/106/106
f 1/108/108 2/109/109 3/107/107
f 3/107/107 2/109/109 4/110/110
f 11/111/111 9/112/112 3/113/113
f 3/114/114 4/115/115 11/117/117
f 11/117/117 4/115/115 12/116/116
f 12/118/118 4/119/119 10/120/120
f 10/122/122 60/123/123 12/121/121
f 12/121/121 60/123/123 62/124/124
f 62/125/125 60/126/126 66/127/127
f 62/129/129 61/130/130 12/128/128
f 12/128/128 61/130/130 11/131/131
f 61/132/132 62/133/133 65/135/135
f 65/135/135 62/133/133 66/134/134
f 11/136/136 61/137/137 9/139/139
f 9/139/139 61/137/137 59/138/138
f 61/140/140 65/141/141 59/142/142
f 39/144/144 49/158/158 37/143/143
f 37/143/143 49/158/158 35/147/147
f 37/143/143 35/147/147 23/148/148
f 27/145/145 9/155/155 39/144/144
f 39/144/144 9/155/155 59/156/156
f 39/144/144 59/156/156 49/158/158
f 49/158/158 59/156/156 57/157/157
f 27/145/145 25/146/146 9/155/155
f 9/155/155 25/146/146 23/148/148
f 9/155/155 23/148/148 21/149/149
f 25/146/146 37/143/143 23/148/148
f 33/150/150 17/152/152 21/149/149
f 21/149/149 17/152/152 7/160/160
f 21/149/149 7/160/160 9/155/155
f 35/147/147 49/158/158 33/150/150
f 33/150/150 49/158/158 43/151/151
f 33/150/150 43/151/151 17/152/152
f 17/152/152 13/153/153 7/160/160
f 7/160/160 13/153/153 41/154/154
f 7/160/160 41/154/154 47/159/159
f 47/159/159 41/154/154 43/151/151
f 47/159/159 43/151/151 49/158/158
f 63/161/161 57/162/162 65/164/164
f 65/164/164 57/162/162 59/163/163
f 49/165/165 57/166/166 53/168/168
f 53/168/168 57/166/166 55/167/167
f 49/169/169 53/170/170 47/172/172
f 47/172/172 53/170/170 51/171/171
f 53/174/174 54/175/175 51/173/173
f 51/173/173 54/175/175 52/176/176
f 48/178/178 8/179/179 46/177/177
f 46/177/177 8/179/179 6/180/180
f 46/181/181 52/182/182 48/183/183
f 6/184/184 8/185/185 2/186/186
f 10/188/188 4/189/189 8/187/187
f 8/187/187 4/189/189 2/190/190
f 32/192/192 10/195/195 20/191/191
f 20/191/191 10/195/195 8/196/196
f 20/191/191 8/196/196 16/194/194
f 16/194/194 8/196/196 30/193/193
f 30/193/193 8/196/196 48/197/197
f 30/193/193 48/197/197 50/198/198
f 10/195/195 32/192/192 50/198/198
f 50/198/198 32/192/192 30/193/193
f 58/199/199 60/200/200 50/198/198
f 50/198/198 60/200/200 10/195/195
f 50/202/202 48/203/203 54/201/201
f 54/201/201 48/203/203 52/204/204
f 50/205/205 54/206/206 58/208/208
f 58/208/208 54/206/206 56/207/207
f 54/210/210 53/211/211 56/209/209
f 56/209/209 53/211/211 55/212/212
f 56/214/214 55/215/215 64/213/213
f 64/213/213 55/215/215 63/216/216
f 56/217/217 64/218/218 58/219/219
f 58/220/220 64/221/221 60/223/223
f 60/223/223 64/221/221 66/222/222
f 65/224/224 66/225/225 63/227/227
f 63/227/227 66/225/225 64/226/226
f 55/228/228 57/229/229 63/230/230
# 66 vertices
# 230 texture params
# 230 normals
# 128 facets

# 1 groups
