# WaveFront *.obj file (generated by Autodesk ATF)

mtllib T6.mtl

g Solid1

v -0.000089 0.432906 0.428898
v -0.000089 0.432906 20.409617
v -0.000089 42.250419 0.428898
v -0.000089 42.250419 20.409617
v 0.421412 0.000319 0.428898
v 0.421412 0.000319 20.409617
v 0.421412 0.432906 0.000000
v 0.421412 0.432906 20.838516
v 0.421412 42.250419 0.000000
v 0.421412 42.250419 20.838516
v 0.421412 42.679343 0.428898
v 0.421412 42.679343 20.409617
v 5.225028 8.841662 0.000000
v 5.225028 8.841662 3.000000
v 5.225028 33.841662 0.000000
v 5.225028 33.841662 3.000000
v 9.657064 27.010484 17.838516
v 9.657064 27.010484 20.838516
v 9.657064 37.010484 17.838516
v 9.657064 37.010484 20.838516
v 15.225029 8.841662 0.000000
v 15.225029 8.841662 3.000000
v 15.225029 33.841662 0.000000
v 15.225029 33.841662 3.000000
v 20.028646 0.000319 0.428898
v 20.028646 0.000319 20.409617
v 20.028646 0.432906 0.000000
v 20.028646 0.432906 20.838516
v 20.028646 21.770549 0.000000
v 20.028646 21.770549 20.838516
v 20.476024 0.432906 0.428898
v 20.476024 0.432906 20.409617
v 20.476024 21.341662 0.428898
v 20.476024 21.341662 20.409617
v 43.836217 0.432906 0.428898
v 43.836217 0.432906 20.409617
v 43.836217 21.341662 0.428898
v 43.836217 21.341662 20.409617
v 44.287305 0.000319 0.428898
v 44.287305 0.000319 20.409617
v 44.287305 0.432906 0.000000
v 44.287305 0.432906 20.838516
v 44.287305 21.770549 0.000000
v 44.287305 21.770549 20.838516
v 49.089098 8.841662 0.000000
v 49.089098 8.841662 3.000000
v 49.089098 33.841662 0.000000
v 49.089098 33.841662 3.000000
v 54.657063 27.010484 17.838516
v 54.657063 27.010484 20.838516
v 54.657063 37.010484 17.838516
v 54.657063 37.010484 20.838516
v 59.089098 8.841662 0.000000
v 59.089098 8.841662 3.000000
v 59.089098 33.841662 0.000000
v 59.089098 33.841662 3.000000
v 63.890891 0.000319 0.428898
v 63.890891 0.000319 20.409617
v 63.890891 0.432906 0.000000
v 63.890891 0.432906 20.838516
v 63.890891 42.250419 0.000000
v 63.890891 42.250419 20.838516
v 63.890891 42.679343 0.428898
v 63.890891 42.679343 20.409617
v 64.316077 0.432906 0.428898
v 64.316077 0.432906 20.409617
v 64.316077 42.250419 0.428898
v 64.316077 42.250419 20.409617
vt 0.000000 0.000000 0.000000
vt -1.960359 0.000000 0.000000
vt -1.960359 -0.060917 0.000000
vt 0.000000 -0.060917 0.000000
vt 0.000000 -2.090876 0.000000
vt 0.000000 2.090876 0.000000
vt -0.060393 2.090876 0.000000
vt -0.060393 -2.090876 0.000000
vt 0.000000 0.000000 0.000000
vt 0.030459 0.052755 0.000000
vt -0.029934 0.052755 0.000000
vt 0.000000 -2.090876 0.000000
vt 0.000000 2.090876 0.000000
vt -1.998072 2.090876 0.000000
vt -1.998072 -2.090876 0.000000
vt 1.998072 0.060656 0.000000
vt 0.000000 0.060656 0.000000
vt 0.000000 0.000000 0.000000
vt 1.998072 0.000000 0.000000
vt 0.000000 -2.090876 0.000000
vt 0.000000 2.090876 0.000000
vt -0.060393 2.090876 0.000000
vt -0.060393 -2.090876 0.000000
vt 0.000000 0.000000 0.000000
vt 0.029934 0.052755 0.000000
vt -0.030459 0.052755 0.000000
vt 0.000000 0.000000 0.000000
vt 0.000000 -0.060917 0.000000
vt 1.960359 -0.060917 0.000000
vt 1.960359 0.000000 0.000000
vt 0.000000 0.000000 0.000000
vt 0.029554 0.053268 0.000000
vt -0.032691 0.053268 0.000000
vt -1.998072 1.960359 0.000000
vt -1.998072 0.000000 0.000000
vt 0.000000 0.000000 0.000000
vt 0.000000 1.960359 0.000000
vt 0.000000 0.000000 0.000000
vt 0.000000 0.062499 0.000000
vt -1.998072 0.062499 0.000000
vt -1.998072 0.000000 0.000000
vt 0.000000 0.000000 0.000000
vt 0.032691 0.053268 0.000000
vt -0.029554 0.053268 0.000000
vt 0.000000 0.000000 0.000000
vt 0.000000 -2.090876 0.000000
vt 1.998072 -2.090876 0.000000
vt 1.998072 0.000000 0.000000
vt 0.000000 0.000000 0.000000
vt 0.000000 2.090876 0.000000
vt -0.062244 2.133764 0.000000
vt -0.062244 0.000000 0.000000
vt -0.062244 2.090876 0.000000
vt -0.062244 0.000000 0.000000
vt 0.000000 0.000000 0.000000
vt 0.000000 2.133764 0.000000
vt 1.998072 -2.336020 0.000000
vt 1.998072 0.000000 0.000000
vt 0.000000 0.000000 0.000000
vt 0.000000 -2.336020 0.000000
vt 0.000000 0.000000 0.000000
vt 2.336020 0.000000 0.000000
vt 2.380757 0.060655 0.000000
vt -0.045109 0.060655 0.000000
vt 0.000000 0.000000 0.000000
vt -0.061976 -0.042889 0.000000
vt -0.061976 -2.133764 0.000000
vt 0.000000 -2.133764 0.000000
vt 0.000000 0.000000 0.000000
vt 0.060393 0.000000 0.000000
vt 0.029934 0.052455 0.000000
vt -1.998072 -0.060395 0.000000
vt 0.000000 -0.060395 0.000000
vt 0.000000 0.000000 0.000000
vt -1.998072 0.000000 0.000000
vt 0.000000 0.000000 0.000000
vt -0.029934 0.052455 0.000000
vt -0.060393 0.000000 0.000000
vt 0.000000 0.000000 0.000000
vt 0.044738 -0.060655 0.000000
vt 2.380757 -0.060655 0.000000
vt 2.425866 0.000000 0.000000
vt 0.061976 -2.133764 0.000000
vt 0.061976 -0.042889 0.000000
vt 0.000000 0.000000 0.000000
vt 0.000000 -2.133764 0.000000
vt 0.000000 0.000000 0.000000
vt 1.998072 0.000000 0.000000
vt 1.998072 2.090876 0.000000
vt 0.000000 2.090876 0.000000
vt 0.000000 0.000000 0.000000
vt 0.000000 -0.062232 0.000000
vt 1.998072 -0.062232 0.000000
vt 1.998072 0.000000 0.000000
vt 0.000000 0.000000 0.000000
vt 0.029682 0.053196 0.000000
vt -0.032294 0.053196 0.000000
vt 0.000000 0.000000 0.000000
vt -1.960723 0.000000 0.000000
vt -1.960723 -0.060917 0.000000
vt 0.000000 -0.060917 0.000000
vt 1.998072 -1.960723 0.000000
vt 1.998072 0.000000 0.000000
vt 0.000000 0.000000 0.000000
vt 0.000000 -1.960723 0.000000
vt 0.000000 0.000000 0.000000
vt -0.060135 0.000000 0.000000
vt -0.029544 -0.052679 0.000000
vt 0.000000 0.000000 0.000000
vt 0.000000 -0.060398 0.000000
vt 1.998072 -0.060398 0.000000
vt 1.998072 0.000000 0.000000
vt 0.000000 2.090876 0.000000
vt 0.000000 -2.090876 0.000000
vt 1.998072 -2.090876 0.000000
vt 1.998072 2.090876 0.000000
vt 0.000000 -2.090876 0.000000
vt 0.000000 2.090876 0.000000
vt -0.060135 2.090876 0.000000
vt -0.060135 -2.090876 0.000000
vt 0.000000 0.000000 0.000000
vt 0.000000 -4.181751 0.000000
vt 0.060135 -4.181751 0.000000
vt 0.060135 0.000000 0.000000
vt 0.000000 0.000000 0.000000
vt 0.000000 0.060136 0.000000
vt -1.998072 0.060136 0.000000
vt -1.998072 0.000000 0.000000
vt 0.000000 0.000000 0.000000
vt 0.060135 0.000000 0.000000
vt 0.029544 0.052379 0.000000
vt 0.000000 0.000000 0.000000
vt -0.029544 0.052379 0.000000
vt -0.060135 0.000000 0.000000
vt 0.000000 0.000000 0.000000
vt 1.998072 0.000000 0.000000
vt 1.998072 6.346948 0.000000
vt 0.000000 6.346948 0.000000
vt 0.000000 0.000000 0.000000
vt -6.346948 0.000000 0.000000
vt -6.346948 -0.060657 0.000000
vt 0.000000 -0.060657 0.000000
vt -0.480362 -0.840876 0.000000
vt -0.480362 -3.340876 0.000000
vt -1.480362 -3.340876 0.000000
vt -1.480362 -0.840876 0.000000
vt -4.866769 -0.840876 0.000000
vt -4.866769 -3.340876 0.000000
vt -5.866769 -3.340876 0.000000
vt -5.866769 -0.840876 0.000000
vt 0.000000 0.000000 0.000000
vt -6.346948 0.000000 0.000000
vt -6.346948 -4.181751 0.000000
vt -4.386590 -4.181751 0.000000
vt -4.386590 -2.047987 0.000000
vt -1.960723 -2.047987 0.000000
vt -1.960723 -4.181751 0.000000
vt 0.000000 -4.181751 0.000000
vt 4.318192 0.000000 0.000000
vt -2.028756 0.000000 0.000000
vt -2.028756 -0.060657 0.000000
vt 4.318192 -0.060657 0.000000
vt 5.423565 -0.523993 0.000000
vt 5.423565 -1.523993 0.000000
vt 0.923565 -1.523993 0.000000
vt 0.923565 -0.523993 0.000000
vt 0.000000 0.000000 0.000000
vt 0.000000 -4.181751 0.000000
vt 1.960723 -4.181751 0.000000
vt 1.960723 -2.047987 0.000000
vt 4.386590 -2.047987 0.000000
vt 4.386590 -4.181751 0.000000
vt 6.346948 -4.181751 0.000000
vt 6.346948 0.000000 0.000000
vt 0.000000 0.000000 0.000000
vt 0.000000 -0.060917 0.000000
vt 1.960723 -0.060917 0.000000
vt 1.960723 0.000000 0.000000
vt 0.000000 0.000000 0.000000
vt 0.029544 -0.052679 0.000000
vt 0.060135 0.000000 0.000000
vt 0.000000 0.000000 0.000000
vt 0.032294 0.053196 0.000000
vt -0.029682 0.053196 0.000000
vt -2.250000 -0.500000 0.000000
vt 2.250000 -0.500000 0.000000
vt 2.250000 0.500000 0.000000
vt -2.250000 0.500000 0.000000
vt -4.500000 0.000000 0.000000
vt -0.000000 0.000000 0.000000
vt -0.000000 0.300000 0.000000
vt -4.500000 0.300000 0.000000
vt -1.000000 0.000000 0.000000
vt -0.000000 0.000000 0.000000
vt -0.000000 0.300000 0.000000
vt -1.000000 0.300000 0.000000
vt -4.500000 0.000000 0.000000
vt -0.000000 0.000000 0.000000
vt -0.000000 0.300000 0.000000
vt -4.500000 0.300000 0.000000
vt -1.000000 0.000000 0.000000
vt -0.000000 0.000000 0.000000
vt -0.000000 0.300000 0.000000
vt -1.000000 0.300000 0.000000
vt -0.500000 -1.250000 0.000000
vt 0.500000 -1.250000 0.000000
vt 0.500000 1.250000 0.000000
vt -0.500000 1.250000 0.000000
vt -1.000000 0.000000 0.000000
vt -0.000000 0.000000 0.000000
vt -0.000000 0.300000 0.000000
vt -1.000000 0.300000 0.000000
vt -2.500000 0.000000 0.000000
vt -0.000000 0.000000 0.000000
vt -0.000000 0.300000 0.000000
vt -2.500000 0.300000 0.000000
vt -1.000000 0.000000 0.000000
vt -0.000000 0.000000 0.000000
vt -0.000000 0.300000 0.000000
vt -1.000000 0.300000 0.000000
vt -2.500000 0.000000 0.000000
vt -0.000000 0.000000 0.000000
vt -0.000000 0.300000 0.000000
vt -2.500000 0.300000 0.000000
vt -0.500000 -1.250000 0.000000
vt 0.500000 -1.250000 0.000000
vt 0.500000 1.250000 0.000000
vt -0.500000 1.250000 0.000000
vt -1.000000 0.000000 0.000000
vt -0.000000 0.000000 0.000000
vt -0.000000 0.300000 0.000000
vt -1.000000 0.300000 0.000000
vt -2.500000 0.000000 0.000000
vt -0.000000 0.000000 0.000000
vt -0.000000 0.300000 0.000000
vt -2.500000 0.300000 0.000000
vt -1.000000 0.000000 0.000000
vt -0.000000 0.000000 0.000000
vt -0.000000 0.300000 0.000000
vt -1.000000 0.300000 0.000000
vt -2.500000 0.000000 0.000000
vt -0.000000 0.000000 0.000000
vt -0.000000 0.300000 0.000000
vt -2.500000 0.300000 0.000000
vn 0.000000 -0.070407 -0.071013
vn 0.000000 -0.070407 -0.071013
vn 0.000000 -0.070407 -0.071013
vn 0.000000 -0.070407 -0.071013
vn 0.071017 0.000000 -0.070403
vn 0.071017 0.000000 -0.070403
vn 0.071017 0.000000 -0.070403
vn 0.071017 0.000000 -0.070403
vn 0.058234 -0.057237 -0.057730
vn 0.058234 -0.057237 -0.057730
vn 0.058234 -0.057237 -0.057730
vn 0.100000 0.000000 0.000000
vn 0.100000 0.000000 0.000000
vn 0.100000 0.000000 0.000000
vn 0.100000 0.000000 0.000000
vn 0.071318 -0.070098 0.000000
vn 0.071318 -0.070098 0.000000
vn 0.071318 -0.070098 0.000000
vn 0.071318 -0.070098 0.000000
vn 0.071017 0.000000 0.070403
vn 0.071017 0.000000 0.070403
vn 0.071017 0.000000 0.070403
vn 0.071017 0.000000 0.070403
vn 0.058234 -0.057237 0.057730
vn 0.058234 -0.057237 0.057730
vn 0.058234 -0.057237 0.057730
vn 0.000000 -0.070407 0.071013
vn 0.000000 -0.070407 0.071013
vn 0.000000 -0.070407 0.071013
vn 0.000000 -0.070407 0.071013
vn -0.055958 -0.058352 0.058854
vn -0.055958 -0.058352 0.058854
vn -0.055958 -0.058352 0.058854
vn 0.000000 -0.100000 0.000000
vn 0.000000 -0.100000 0.000000
vn 0.000000 -0.100000 0.000000
vn 0.000000 -0.100000 0.000000
vn -0.069215 -0.072175 0.000000
vn -0.069215 -0.072175 0.000000
vn -0.069215 -0.072175 0.000000
vn -0.069215 -0.072175 0.000000
vn -0.055958 -0.058352 -0.058853
vn -0.055958 -0.058352 -0.058853
vn -0.055958 -0.058352 -0.058853
vn -0.100000 0.000000 0.000000
vn -0.100000 0.000000 0.000000
vn -0.100000 0.000000 0.000000
vn -0.100000 0.000000 0.000000
vn -0.068906 0.000000 -0.072471
vn -0.068906 0.000000 -0.072471
vn -0.068906 0.000000 -0.072471
vn -0.068906 0.000000 -0.072471
vn -0.068906 0.000000 0.072471
vn -0.068906 0.000000 0.072471
vn -0.068906 0.000000 0.072471
vn -0.068906 0.000000 0.072471
vn 0.000000 -0.100000 0.000000
vn 0.000000 -0.100000 0.000000
vn 0.000000 -0.100000 0.000000
vn 0.000000 -0.100000 0.000000
vn 0.000000 -0.070712 -0.070710
vn 0.000000 -0.070712 -0.070710
vn 0.000000 -0.070712 -0.070710
vn 0.000000 -0.070712 -0.070710
vn 0.069204 0.000000 -0.072186
vn 0.069204 0.000000 -0.072186
vn 0.069204 0.000000 -0.072186
vn 0.069204 0.000000 -0.072186
vn 0.058071 0.057565 -0.057568
vn 0.058071 0.057565 -0.057568
vn 0.058071 0.057565 -0.057568
vn 0.071019 0.070401 0.000000
vn 0.071019 0.070401 0.000000
vn 0.071019 0.070401 0.000000
vn 0.071019 0.070401 0.000000
vn 0.058071 0.057565 0.057568
vn 0.058071 0.057565 0.057568
vn 0.058071 0.057565 0.057568
vn 0.000000 -0.070712 0.070710
vn 0.000000 -0.070712 0.070710
vn 0.000000 -0.070712 0.070710
vn 0.000000 -0.070712 0.070710
vn 0.069204 0.000000 0.072186
vn 0.069204 0.000000 0.072186
vn 0.069204 0.000000 0.072186
vn 0.069204 0.000000 0.072186
vn 0.100000 0.000000 0.000000
vn 0.100000 0.000000 0.000000
vn 0.100000 0.000000 0.000000
vn 0.100000 0.000000 0.000000
vn 0.069512 -0.071889 0.000000
vn 0.069512 -0.071889 0.000000
vn 0.069512 -0.071889 0.000000
vn 0.069512 -0.071889 0.000000
vn 0.056276 -0.058200 -0.058701
vn 0.056276 -0.058200 -0.058701
vn 0.056276 -0.058200 -0.058701
vn 0.000000 -0.070407 -0.071013
vn 0.000000 -0.070407 -0.071013
vn 0.000000 -0.070407 -0.071013
vn 0.000000 -0.070407 -0.071013
vn 0.000000 -0.100000 0.000000
vn 0.000000 -0.100000 0.000000
vn 0.000000 -0.100000 0.000000
vn 0.000000 -0.100000 0.000000
vn -0.058569 -0.057068 -0.057558
vn -0.058569 -0.057068 -0.057558
vn -0.058569 -0.057068 -0.057558
vn -0.071623 -0.069787 0.000000
vn -0.071623 -0.069787 0.000000
vn -0.071623 -0.069787 0.000000
vn -0.071623 -0.069787 0.000000
vn -0.100000 0.000000 0.000000
vn -0.100000 0.000000 0.000000
vn -0.100000 0.000000 0.000000
vn -0.100000 0.000000 0.000000
vn -0.071323 0.000000 -0.070093
vn -0.071323 0.000000 -0.070093
vn -0.071323 0.000000 -0.070093
vn -0.071323 0.000000 -0.070093
vn -0.071323 0.000000 0.070093
vn -0.071323 0.000000 0.070093
vn -0.071323 0.000000 0.070093
vn -0.071323 0.000000 0.070093
vn -0.071325 0.070091 0.000000
vn -0.071325 0.070091 0.000000
vn -0.071325 0.070091 0.000000
vn -0.071325 0.070091 0.000000
vn -0.058406 0.057395 0.057398
vn -0.058406 0.057395 0.057398
vn -0.058406 0.057395 0.057398
vn -0.058406 0.057395 -0.057398
vn -0.058406 0.057395 -0.057398
vn -0.058406 0.057395 -0.057398
vn 0.000000 0.100000 0.000000
vn 0.000000 0.100000 0.000000
vn 0.000000 0.100000 0.000000
vn 0.000000 0.100000 0.000000
vn 0.000000 0.070709 -0.070713
vn 0.000000 0.070709 -0.070713
vn 0.000000 0.070709 -0.070713
vn 0.000000 0.070709 -0.070713
vn 0.000000 0.000000 -0.100000
vn 0.000000 0.000000 -0.100000
vn 0.000000 0.000000 -0.100000
vn 0.000000 0.000000 -0.100000
vn 0.000000 0.000000 -0.100000
vn 0.000000 0.000000 -0.100000
vn 0.000000 0.000000 -0.100000
vn 0.000000 0.000000 -0.100000
vn 0.000000 0.000000 -0.100000
vn 0.000000 0.000000 -0.100000
vn 0.000000 0.000000 -0.100000
vn 0.000000 0.000000 -0.100000
vn 0.000000 0.000000 -0.100000
vn 0.000000 0.000000 -0.100000
vn 0.000000 0.000000 -0.100000
vn 0.000000 0.000000 -0.100000
vn 0.000000 0.070709 0.070713
vn 0.000000 0.070709 0.070713
vn 0.000000 0.070709 0.070713
vn 0.000000 0.070709 0.070713
vn 0.000000 0.000000 0.100000
vn 0.000000 0.000000 0.100000
vn 0.000000 0.000000 0.100000
vn 0.000000 0.000000 0.100000
vn 0.000000 0.000000 0.100000
vn 0.000000 0.000000 0.100000
vn 0.000000 0.000000 0.100000
vn 0.000000 0.000000 0.100000
vn 0.000000 0.000000 0.100000
vn 0.000000 0.000000 0.100000
vn 0.000000 0.000000 0.100000
vn 0.000000 0.000000 0.100000
vn 0.000000 -0.070407 0.071013
vn 0.000000 -0.070407 0.071013
vn 0.000000 -0.070407 0.071013
vn 0.000000 -0.070407 0.071013
vn -0.058569 -0.057068 0.057558
vn -0.058569 -0.057068 0.057558
vn -0.058569 -0.057068 0.057558
vn 0.056276 -0.058200 0.058701
vn 0.056276 -0.058200 0.058701
vn 0.056276 -0.058200 0.058701
vn 0.000000 0.000000 0.100000
vn 0.000000 0.000000 0.100000
vn 0.000000 0.000000 0.100000
vn 0.000000 0.000000 0.100000
vn 0.000000 0.100000 0.000000
vn 0.000000 0.100000 0.000000
vn 0.000000 0.100000 0.000000
vn 0.000000 0.100000 0.000000
vn 0.100000 0.000000 0.000000
vn 0.100000 0.000000 0.000000
vn 0.100000 0.000000 0.000000
vn 0.100000 0.000000 0.000000
vn 0.000000 -0.100000 0.000000
vn 0.000000 -0.100000 0.000000
vn 0.000000 -0.100000 0.000000
vn 0.000000 -0.100000 0.000000
vn -0.100000 0.000000 0.000000
vn -0.100000 0.000000 0.000000
vn -0.100000 0.000000 0.000000
vn -0.100000 0.000000 0.000000
vn 0.000000 0.000000 -0.100000
vn 0.000000 0.000000 -0.100000
vn 0.000000 0.000000 -0.100000
vn 0.000000 0.000000 -0.100000
vn 0.000000 0.100000 0.000000
vn 0.000000 0.100000 0.000000
vn 0.000000 0.100000 0.000000
vn 0.000000 0.100000 0.000000
vn -0.100000 0.000000 0.000000
vn -0.100000 0.000000 0.000000
vn -0.100000 0.000000 0.000000
vn -0.100000 0.000000 0.000000
vn 0.000000 -0.100000 0.000000
vn 0.000000 -0.100000 0.000000
vn 0.000000 -0.100000 0.000000
vn 0.000000 -0.100000 0.000000
vn 0.100000 0.000000 0.000000
vn 0.100000 0.000000 0.000000
vn 0.100000 0.000000 0.000000
vn 0.100000 0.000000 0.000000
vn 0.000000 0.000000 -0.100000
vn 0.000000 0.000000 -0.100000
vn 0.000000 0.000000 -0.100000
vn 0.000000 0.000000 -0.100000
vn 0.000000 0.100000 0.000000
vn 0.000000 0.100000 0.000000
vn 0.000000 0.100000 0.000000
vn 0.000000 0.100000 0.000000
vn -0.100000 0.000000 0.000000
vn -0.100000 0.000000 0.000000
vn -0.100000 0.000000 0.000000
vn -0.100000 0.000000 0.000000
vn 0.000000 -0.100000 0.000000
vn 0.000000 -0.100000 0.000000
vn 0.000000 -0.100000 0.000000
vn 0.000000 -0.100000 0.000000
vn 0.100000 0.000000 0.000000
vn 0.100000 0.000000 0.000000
vn 0.100000 0.000000 0.000000
vn 0.100000 0.000000 0.000000
usemtl 23,73,211
f 41/1/1 59/2/2 39/4/4
f 39/4/4 59/2/2 57/3/3
f 61/6/6 67/7/7 59/5/5
f 59/5/5 67/7/7 65/8/8
f 57/9/9 59/10/10 65/11/11
f 67/13/13 68/14/14 65/12/12
f 65/12/12 68/14/14 66/15/15
f 65/16/16 66/17/17 57/19/19
f 57/19/19 66/17/17 58/18/18
f 68/21/21 62/22/22 66/20/20
f 66/20/20 62/22/22 60/23/23
f 58/24/24 66/25/25 60/26/26
f 40/28/28 58/29/29 42/27/27
f 42/27/27 58/29/29 60/30/30
f 40/31/31 42/32/32 36/33/33
f 40/35/35 39/36/36 58/34/34
f 58/34/34 39/36/36 57/37/37
f 36/39/39 35/40/40 40/38/38
f 40/38/38 35/40/40 39/41/41
f 39/42/42 35/43/43 41/44/44
f 35/46/46 36/47/47 37/45/45
f 37/45/45 36/47/47 38/48/48
f 35/49/49 37/50/50 41/52/52
f 41/52/52 37/50/50 43/51/51
f 36/54/54 42/55/55 38/53/53
f 38/53/53 42/55/55 44/56/56
f 37/58/58 38/59/59 33/57/57
f 33/57/57 38/59/59 34/60/60
f 33/62/62 29/63/63 37/61/61
f 37/61/61 29/63/63 43/64/64
f 29/65/65 33/66/66 27/68/68
f 27/68/68 33/66/66 31/67/67
f 67/69/69 61/70/70 63/71/71
f 68/72/72 67/73/73 64/75/75
f 64/75/75 67/73/73 63/74/74
f 68/76/76 64/77/77 62/78/78
f 34/80/80 38/81/81 30/79/79
f 30/79/79 38/81/81 44/82/82
f 32/83/83 34/84/84 28/86/86
f 28/86/86 34/84/84 30/85/85
f 32/87/87 31/88/88 34/90/90
f 34/90/90 31/88/88 33/89/89
f 26/92/92 25/93/93 32/91/91
f 32/91/91 25/93/93 31/94/94
f 25/95/95 27/96/96 31/97/97
f 7/98/98 27/99/99 5/101/101
f 5/101/101 27/99/99 25/100/100
f 25/103/103 26/104/104 5/102/102
f 5/102/102 26/104/104 6/105/105
f 1/106/106 7/107/107 5/108/108
f 5/110/110 6/111/111 1/109/109
f 1/109/109 6/111/111 2/112/112
f 1/114/114 2/115/115 3/113/113
f 3/113/113 2/115/115 4/116/116
f 3/118/118 9/119/119 1/117/117
f 1/117/117 9/119/119 7/120/120
f 2/122/122 8/123/123 4/121/121
f 4/121/121 8/123/123 10/124/124
f 12/126/126 11/127/127 4/125/125
f 4/125/125 11/127/127 3/128/128
f 4/129/129 10/130/130 12/131/131
f 3/132/132 11/133/133 9/134/134
f 11/135/135 12/136/136 63/138/138
f 63/138/138 12/136/136 64/137/137
f 11/139/139 63/140/140 9/142/142
f 9/142/142 63/140/140 61/141/141
f 13/144/144 7/158/158 15/143/143
f 15/143/143 7/158/158 9/151/151
f 15/143/143 9/151/151 23/146/146
f 23/146/146 9/151/151 61/152/152
f 23/146/146 61/152/152 47/147/147
f 47/147/147 61/152/152 55/150/150
f 55/150/150 61/152/152 59/153/153
f 55/150/150 59/153/153 53/149/149
f 53/149/149 59/153/153 41/154/154
f 53/149/149 41/154/154 45/148/148
f 45/148/148 41/154/154 43/155/155
f 45/148/148 43/155/155 47/147/147
f 47/147/147 43/155/155 29/156/156
f 47/147/147 29/156/156 23/146/146
f 23/146/146 29/156/156 21/145/145
f 21/145/145 29/156/156 27/157/157
f 21/145/145 27/157/157 7/158/158
f 13/144/144 21/145/145 7/158/158
f 64/159/159 12/160/160 62/162/162
f 62/162/162 12/160/160 10/161/161
f 20/166/166 52/163/163 62/174/174
f 62/174/174 52/163/163 50/164/164
f 62/174/174 50/164/164 60/173/173
f 60/173/173 50/164/164 44/171/171
f 60/173/173 44/171/171 42/172/172
f 44/171/171 50/164/164 30/170/170
f 30/170/170 50/164/164 18/165/165
f 30/170/170 18/165/165 8/168/168
f 8/168/168 18/165/165 10/167/167
f 10/167/167 18/165/165 20/166/166
f 10/167/167 20/166/166 62/174/174
f 8/168/168 28/169/169 30/170/170
f 6/176/176 26/177/177 8/175/175
f 8/175/175 26/177/177 28/178/178
f 2/179/179 6/180/180 8/181/181
f 26/182/182 32/183/183 28/184/184
usemtl 91,91,91
f 17/185/185 49/186/186 19/188/188
f 19/188/188 49/186/186 51/187/187
f 18/189/189 50/190/190 17/192/192
f 17/192/192 50/190/190 49/191/191
f 20/193/193 18/194/194 19/196/196
f 19/196/196 18/194/194 17/195/195
f 52/197/197 20/198/198 51/200/200
f 51/200/200 20/198/198 19/199/199
f 50/201/201 52/202/202 49/204/204
f 49/204/204 52/202/202 51/203/203
f 54/205/205 46/206/206 56/208/208
f 56/208/208 46/206/206 48/207/207
f 53/209/209 45/210/210 54/212/212
f 54/212/212 45/210/210 46/211/211
f 55/213/213 53/214/214 56/216/216
f 56/216/216 53/214/214 54/215/215
f 47/217/217 55/218/218 48/220/220
f 48/220/220 55/218/218 56/219/219
f 45/221/221 47/222/222 46/224/224
f 46/224/224 47/222/222 48/223/223
f 22/225/225 14/226/226 24/228/228
f 24/228/228 14/226/226 16/227/227
f 21/229/229 13/230/230 22/232/232
f 22/232/232 13/230/230 14/231/231
f 23/233/233 21/234/234 24/236/236
f 24/236/236 21/234/234 22/235/235
f 15/237/237 23/238/238 16/240/240
f 16/240/240 23/238/238 24/239/239
f 13/241/241 15/242/242 14/244/244
f 14/244/244 15/242/242 16/243/243
# 68 vertices
# 244 texture params
# 244 normals
# 132 facets

# 1 groups
